<svg width="100" height="33" viewBox="0 0 100 33" fill="none" xmlns="http://www.w3.org/2000/svg">
<path fill-rule="evenodd" clip-rule="evenodd" d="M6.66803 19.6667L9.23878 10.9388C9.42517 10.3401 9.90952 9.51565 11.0639 9.51565C12.1816 9.51565 13.1878 10.1905 13.1878 11.4265C13.1878 11.8007 13.1129 12.1 12.9265 12.5871L9.57415 22.0633C8.9034 23.8612 8.49388 24.4986 6.81701 24.4986H6.51905C4.80544 24.4986 4.24694 23.8612 3.57619 22.0259L0.260544 12.5871C0.0748299 12.1007 0 11.8007 0 11.4265C0 10.1524 1.04286 9.51565 2.12313 9.51565C3.27823 9.51565 3.76258 10.3401 3.94898 10.9395L6.51905 19.6667H6.66871H6.66803ZM47.7585 22.2884C47.7585 23.5993 48.6156 24.498 49.7701 24.498C50.9993 24.498 51.819 23.5993 51.819 22.2884V2.43673C51.819 1.12585 50.9619 0.227211 49.7701 0.227211C48.5782 0.227211 47.7585 1.12585 47.7585 2.43673V22.2884ZM55.1347 22.2884C55.1347 23.5993 55.9918 24.498 57.1463 24.498C58.3755 24.498 59.1952 23.5993 59.1952 22.2884V11.6884C59.1952 10.415 58.3381 9.51565 57.1463 9.51565C55.9537 9.51565 55.1347 10.415 55.1347 11.6884V22.2884ZM75.7728 16.1456C75.7728 11.651 73.351 9.36599 69.0299 9.36599C64.6714 9.36599 62.2871 11.6136 62.2871 16.183V22.3259C62.2871 23.5993 63.1442 24.498 64.3361 24.498C65.5653 24.498 66.385 23.5993 66.385 22.3259V15.5463C66.385 13.6735 67.3905 12.8497 69.0299 12.8497C70.7435 12.8497 71.6374 13.9361 71.6374 15.5463V22.3265C71.6374 23.6 72.532 24.4986 73.7238 24.4986C74.9156 24.4986 75.7728 23.6 75.7728 22.3265V16.1456ZM15.3483 17.7565C15.3483 22.2884 17.7701 24.5361 22.0912 24.5361C26.4497 24.5361 28.834 22.2884 28.834 17.719V11.5762C28.834 10.2653 27.9769 9.4034 26.8224 9.4034C25.5925 9.4034 24.7735 10.3027 24.7735 11.5762V18.3925C24.7735 20.266 23.7299 21.0898 22.0912 21.0898C20.3401 21.0898 19.4837 20.0034 19.4837 18.3932V11.5762C19.4837 10.2653 18.6265 9.4034 17.4714 9.4034C16.2796 9.4034 15.3857 10.3027 15.3857 11.5762V17.7565H15.3483ZM85.8313 9.36599C81.3231 9.36599 78.3429 12.4 78.3429 17.0068C78.3429 21.6891 80.9878 24.5361 84.7878 24.5361C86.6136 24.5361 87.8796 23.9741 88.5503 23.2619V25.5844C88.5503 27.4946 87.619 28.6932 85.2721 28.6932C82.9252 28.6932 81.9565 27.532 80.6531 27.532C79.8333 27.532 79.1633 28.3565 79.1633 29.2551C79.1633 30.9782 82.4408 32.3265 84.9367 32.3265C90.115 32.3265 92.4245 29.4422 92.4245 25.0224V12.7367C92.4245 11.4265 91.6796 10.7891 90.5619 10.2653C89.668 9.92789 88.1034 9.36599 85.8313 9.36599ZM88.5503 16.8946C88.5503 19.6667 87.5075 21.0524 85.4585 21.0524C83.4095 21.0524 82.4041 19.966 82.4041 17.0449C82.4041 14.4599 83.4095 12.8122 85.9429 12.8122C87.619 12.8122 88.5503 13.5238 88.5503 14.0109V16.8946ZM43.2878 18.3558H35.3156C35.5769 20.0034 36.3959 21.1653 38.4823 21.1653C40.5313 21.1653 41.6116 20.3782 42.6544 20.3782C43.4741 20.3782 44.1442 21.2395 44.1442 22.0259C44.1442 23.6367 41.4252 24.4612 38.4449 24.4612C34.049 24.4612 31.3293 21.5769 31.3293 16.932C31.3293 12.2878 34.0122 9.25374 38.3333 9.25374C42.9524 9.25374 44.9646 12.3252 44.9646 16.5578C44.9646 17.719 44.4803 18.3558 43.2878 18.3558ZM41.1272 15.6211C41.0156 13.7109 40.1218 12.5122 38.2218 12.5122C36.3592 12.5122 35.502 13.3742 35.3156 15.6211H41.1272Z" fill="white"/>
<path fill-rule="evenodd" clip-rule="evenodd" d="M99.6191 3.24966C99.6211 4.72245 98.6823 5.75987 97.1123 5.76123C95.5429 5.76327 94.6402 4.72721 94.6388 3.25374C94.6388 1.81769 95.5395 0.782314 97.1089 0.780273C98.6782 0.780273 99.6177 1.81225 99.6191 3.24966Z" fill="#FFCC00"/>
</svg>
